<svg xmlns="http://www.w3.org/2000/svg" xmlns:xlink="http://www.w3.org/1999/xlink" version="1.1" id="Layer_1" x="0px" y="0px" width="512px" height="512px" viewBox="0 0 512 512" enable-background="new 0 0 512 512" xml:space="preserve"><g><path fill="#4D4D4D" d="M246.484 399.226h181.396c44.521 0 80.619-36.099 80.619-80.619V96.9c0-44.522-36.099-80.62-80.619-80.62 H85.244c-44.522 0-80.62 36.098-80.62 80.62v221.705c0 44.5 36.1 80.6 80.6 80.62h32.162 c-0.021 31.846-15.137 56.144-26.562 76.526l-4.389 7.953c-1.595 2.952-1.624 7.007-0.059 10.5 c1.564 3.5 4.4 5.7 7.4 5.786c5.373 0.2 11.249-0.472 17.537-1.928C136.094 492.4 206.2 459.7 246.5 399.226z M377.492 173.485c18.914 0 34.3 15.4 34.3 34.268s-15.354 34.267-34.268 34.267s-34.267-15.352-34.267-34.267 S358.578 173.5 377.5 173.485z M256.563 173.485c18.914 0 34.3 15.4 34.3 34.268s-15.353 34.267-34.267 34.3 c-18.915 0-34.268-15.352-34.268-34.267S237.648 173.5 256.6 173.485z M135.632 242.02c-18.915 0-34.268-15.352-34.268-34.267 s15.352-34.268 34.268-34.268c18.916 0 34.3 15.4 34.3 34.268C169.9 226.7 154.5 242 135.6 242.02z"/></g></svg>