<svg xmlns="http://www.w3.org/2000/svg" xmlns:xlink="http://www.w3.org/1999/xlink" enable-background="new 0 0 512 512" height="512px" id="Layer_1" version="1.1" viewBox="0 0 512 512" width="512px" xml:space="preserve"><g><path d="M437.781 245.672C453.055 251.1 464 265 464 281.594C464 302.8 446.1 320 424 320h-40 c-64 0-64 19.734-64 81.219C320 462.7 283.9 480 258.2 480c-25.734 0-34.211-15-32.609-28.344 c2.008-16.734 10.672-56.844 10.672-83.656c0-42.844-47.828-85.578-92.273-94.297c0.031-0.578 0-1.125 0-1.703V95.484 C221.898 90.4 228.7 48 328 48h48c22.094 0 40 16.1 40 36c0 11.375-5.984 21.406-15.141 28H408c22.094 0 40 16.1 40 36 c0 11.781-6.375 22.156-16.102 28.719C450.203 180 464 194.5 464 212C464 227.5 453.1 240.6 437.8 245.672z M128 88 c0-13.255-10.745-24-24-24H72c-13.255 0-24 10.745-24 24v192c0 13.3 10.7 24 24 24h32c13.255 0 24-10.745 24-24V88z" fill="#4D4D4D"/></g></svg>