<?xml version="1.0" encoding="utf-8"?>
<!-- Generator: Adobe Illustrator 15.0.2, SVG Export Plug-In . SVG Version: 6.00 Build 0)  -->
<!DOCTYPE svg PUBLIC "-//W3C//DTD SVG 1.1//EN" "http://www.w3.org/Graphics/SVG/1.1/DTD/svg11.dtd">
<svg version="1.1" id="Layer_1" xmlns="http://www.w3.org/2000/svg" xmlns:xlink="http://www.w3.org/1999/xlink" x="0px" y="0px"
	 width="512px" height="512px" viewBox="0 0 512 512" style="enable-background:new 0 0 512 512;" xml:space="preserve">
<style type="text/css">
<![CDATA[
	.st0{fill:#949494;}
]]>
</style>
<g>
	<path class="st0" d="M464,316c0,17.453-13.797,31.984-32.102,35.281C441.625,357.844,448,368.219,448,380c0,19.891-17.906,36-40,36
		h-7.141c9.154,6.594,15.141,16.625,15.141,28c0,19.891-17.906,36-40,36h-48c-99.336,0-106.102-42.406-184-47.484V256
		c0-0.578,0.031-1.125,0-1.703c44.445-8.719,92.273-51.453,92.273-94.297c0-26.813-8.664-66.922-10.672-83.656
		C224,63,232.477,48,258.211,48C283.945,48,320,65.328,320,126.781c0,61.484,0,81.219,64,81.219h40c22.094,0,40,17.188,40,38.406
		c0,16.547-10.945,30.516-26.219,35.922C453.055,287.391,464,300.484,464,316z M128,264c0-13.255-10.745-24-24-24H72
		c-13.255,0-24,10.745-24,24v192c0,13.255,10.745,24,24,24h32c13.255,0,24-10.745,24-24V264z"/>
</g>
</svg>
