<svg xmlns="http://www.w3.org/2000/svg" xmlns:xlink="http://www.w3.org/1999/xlink" enable-background="new 0 0 512 512" height="512px" id="Layer_1" version="1.1" viewBox="0 0 512 512" width="512px" xml:space="preserve"><g><path d="M464 316c0 17.453-13.797 31.984-32.102 35.281C441.625 357.8 448 368.2 448 380 c0 19.891-17.906 36-40 36h-7.141c9.155 6.6 15.1 16.6 15.1 28c0 19.891-17.906 36-40 36h-48 c-99.336 0-106.102-42.406-184-47.484V256c0-0.578 0.031-1.125 0-1.703c44.445-8.719 92.273-51.453 92.273-94.297 c0-26.813-8.664-66.922-10.672-83.656C224 63 232.5 48 258.2 48C283.945 48 320 65.3 320 126.8 c0 61.5 0 81.2 64 81.219h40c22.094 0 40 17.2 40 38.406c0 16.547-10.945 30.516-26.219 35.9 C453.055 287.4 464 300.5 464 316z M128 264c0-13.255-10.745-24-24-24H72c-13.255 0-24 10.745-24 24v192 c0 13.3 10.7 24 24 24h32c13.255 0 24-10.745 24-24V264z" fill="#4D4D4D"/></g></svg>